<svg width="573" height="380" viewBox="0 0 573 380" fill="none" xmlns="http://www.w3.org/2000/svg">
<g filter="url(#filter0_d_105_11)">
<path d="M50.4311 161.596C40.1007 169.7 57.005 240.837 57.005 240.837C57.005 240.837 60.7616 349.343 68.7442 354.296C76.7268 359.249 94.5703 353.846 101.614 352.945C108.657 352.045 102.553 284.96 92.2224 260.197C81.892 235.434 89.8746 199.415 89.8746 199.415L145.753 209.771C145.753 209.771 111.944 237.235 113.353 243.088C114.762 248.941 150.918 268.751 157.492 269.652C164.066 270.552 176.744 233.633 188.014 208.42C199.284 183.207 111.005 166.998 111.005 166.998L98.7964 144.937C98.7964 144.937 60.7616 153.491 50.4311 161.596Z" fill="#2F2E41"/>
<path d="M78.4761 356.164C78.4761 356.164 75.0686 367.6 78.4761 367.6C81.8835 367.6 88.1305 370.867 97.7849 369.778C107.439 368.689 104.6 357.254 97.7849 355.62C90.97 353.986 92.6737 340.918 92.6737 340.918C90.4021 336.561 79.6119 342.007 79.6119 342.007L78.4761 356.164Z" fill="#2F2E41"/>
<path d="M126.852 265.232C126.852 265.232 121.006 275.721 124.337 276.41C127.667 277.099 133.055 281.556 142.732 282.444C152.409 283.331 152.148 271.579 145.846 268.604C139.544 265.629 144.083 253.199 144.083 253.199C142.821 248.482 131.076 251.623 131.076 251.623L126.852 265.232Z" fill="#2F2E41"/>
<path d="M56.7704 64.1204C57.7095 65.9213 53.4834 88.433 53.4834 88.433L57.2399 94.7363C57.2399 94.7363 78.84 86.6321 75.553 85.2814C72.266 83.9307 72.7356 67.272 72.7356 67.272C72.7356 67.272 55.8313 62.3194 56.7704 64.1204Z" fill="#FFB9B9"/>
<path d="M64.9002 71.0593C80.801 71.0593 93.6911 58.6999 93.6911 43.4537C93.6911 28.2076 80.801 15.8481 64.9002 15.8481C48.9995 15.8481 36.1094 28.2076 36.1094 43.4537C36.1094 58.6999 48.9995 71.0593 64.9002 71.0593Z" fill="#2F2E41"/>
<path d="M62.9147 29.0335C69.4943 29.0335 74.8281 23.9192 74.8281 17.6105C74.8281 11.3017 69.4943 6.1875 62.9147 6.1875C56.3351 6.1875 51.0012 11.3017 51.0012 17.6105C51.0012 23.9192 56.3351 29.0335 62.9147 29.0335Z" fill="#2F2E41"/>
<path d="M68.1267 22.7843C68.539 22.8253 68.9532 22.8459 69.3677 22.846C70.9322 22.846 72.4814 22.5506 73.9268 21.9765C75.3722 21.4024 76.6855 20.561 77.7918 19.5003C78.8981 18.4396 79.7756 17.1803 80.3743 15.7944C80.973 14.4085 81.2812 12.9231 81.2812 11.423C81.2812 9.92292 80.973 8.43752 80.3743 7.05161C79.7756 5.66571 78.8981 4.40645 77.7918 3.34572C76.6855 2.285 75.3722 1.44358 73.9268 0.869525C72.4814 0.295465 70.9322 -4.47062e-08 69.3677 0C68.9532 0.000102212 68.539 0.0207155 68.1267 0.0617595C71.0555 0.355986 73.7669 1.67982 75.7377 3.77785C77.7085 5.87588 78.7992 8.59942 78.7992 11.423C78.7992 14.2466 77.7085 16.9701 75.7377 19.0682C73.7669 21.1662 71.0555 22.49 68.1267 22.7843V22.7843Z" fill="#2F2E41"/>
<path d="M65.692 75.8265C76.584 75.8265 85.4137 67.3603 85.4137 56.9167C85.4137 46.4731 76.584 38.0068 65.692 38.0068C54.7999 38.0068 45.9702 46.4731 45.9702 56.9167C45.9702 67.3603 54.7999 75.8265 65.692 75.8265Z" fill="#FFB9B9"/>
<path d="M37.2832 85.9566C31.1788 87.3073 20.8484 101.715 20.8484 101.715L37.2832 117.473C37.2832 117.473 49.0223 159.795 50.4311 161.596C59.6599 173.395 101.144 147.189 101.144 147.189C101.144 147.189 99.5007 134.357 100.44 128.054C101.343 121.991 96.9181 109.819 96.9181 109.819C96.9181 109.819 112.414 103.516 109.127 97.2125C105.84 90.9092 85.6485 76.5017 77.1964 81.4543C68.7442 86.4069 51.8398 81.4543 51.8398 81.4543C51.8398 81.4543 43.3876 84.6059 37.2832 85.9566Z" fill="#E6E6E6"/>
<path d="M157.257 176.679C157.257 176.679 184.023 198.74 190.596 194.238C197.17 189.736 165.24 173.978 165.24 173.978L157.257 176.679Z" fill="#FFB9B9"/>
<path d="M37.0486 169.025C40.8051 173.077 58.6486 162.721 56.361 158.123C54.0734 153.524 39.866 162.721 39.866 162.721C39.866 162.721 33.2921 164.973 37.0486 169.025Z" fill="#FFB9B9"/>
<path d="M37.2833 108.018L17.5615 143.136C17.5615 143.136 40.1007 161.146 42.918 161.596C45.7354 162.046 37.2833 173.752 37.2833 173.752C37.2833 173.752 11.9267 156.643 2.06582 148.089C-7.79506 139.534 20.8485 101.715 20.8485 101.715L29.3007 96.7622L37.2833 108.018Z" fill="#E6E6E6"/>
<path d="M94.5703 106.668L117.579 140.885C117.579 140.885 152.796 178.705 157.492 180.506C162.188 182.307 167.823 173.752 167.823 173.752L125.562 124.677L109.596 97.2126L103.492 94.9614L94.5703 106.668Z" fill="#E6E6E6"/>
<path d="M64.9002 45.8719C75.8662 45.8719 84.756 40.7576 84.756 34.4489C84.756 28.1401 75.8662 23.0259 64.9002 23.0259C53.9342 23.0259 45.0444 28.1401 45.0444 34.4489C45.0444 40.7576 53.9342 45.8719 64.9002 45.8719Z" fill="#2F2E41"/>
</g>
<g filter="url(#filter1_d_105_11)">
<path d="M120.602 280.913C119.952 280.914 119.328 281.162 118.867 281.603C118.407 282.044 118.148 282.643 118.148 283.267V363.538C118.148 364.162 118.407 364.76 118.867 365.201C119.328 365.643 119.952 365.891 120.602 365.892H406.066C406.717 365.891 407.34 365.643 407.801 365.201C408.261 364.76 408.52 364.162 408.52 363.538V283.267C408.52 282.643 408.261 282.044 407.801 281.603C407.341 281.162 406.717 280.914 406.066 280.913L120.602 280.913Z" fill="#E6E6E6"/>
</g>
<path d="M124.299 359.994H402.369V286.811H124.299V359.994Z" fill="white"/>
<path d="M367.27 344.812C366.736 344.811 366.206 344.911 365.713 345.107C365.219 345.303 364.77 345.59 364.392 345.952C364.014 346.314 363.714 346.744 363.509 347.217C363.305 347.69 363.199 348.198 363.199 348.71C363.199 349.222 363.305 349.73 363.509 350.203C363.714 350.676 364.014 351.106 364.392 351.468C364.77 351.83 365.219 352.118 365.713 352.313C366.206 352.509 366.736 352.609 367.27 352.609H383.534C384.612 352.609 385.646 352.198 386.409 351.467C387.171 350.736 387.6 349.744 387.6 348.71C387.6 347.676 387.171 346.684 386.409 345.953C385.646 345.222 384.612 344.812 383.534 344.812H367.27Z" fill="#457B9D"/>
<path d="M387.599 337.25H199.855V338.275H387.599V337.25Z" fill="#E6E6E6"/>
<path d="M160.611 346.109C173.69 346.109 184.293 335.943 184.293 323.402C184.293 310.862 173.69 300.695 160.611 300.695C147.532 300.695 136.929 310.862 136.929 323.402C136.929 335.943 147.532 346.109 160.611 346.109Z" fill="#457B9D"/>
<path d="M200.152 331.522L199.559 330.668L219.068 318.197L232.446 324.355L251.689 312.567L289.968 328.223L320.451 313.866L350.051 325.372L387.245 293.785L387.954 294.553L350.264 326.562L320.493 314.989L289.999 329.351L251.789 313.723L232.521 325.527L219.154 319.376L200.152 331.522Z" fill="#3F3D56"/>
<path d="M203.332 345.348C202.875 345.347 202.423 345.433 202 345.6C201.578 345.767 201.194 346.013 200.871 346.323C200.547 346.632 200.291 347 200.116 347.405C199.941 347.809 199.851 348.243 199.851 348.681C199.851 349.119 199.941 349.553 200.116 349.958C200.291 350.363 200.547 350.73 200.871 351.04C201.194 351.35 201.578 351.595 202 351.762C202.423 351.93 202.875 352.015 203.332 352.015H239.704C240.625 352.014 241.509 351.662 242.16 351.037C242.811 350.412 243.176 349.565 243.176 348.681C243.176 347.798 242.811 346.951 242.16 346.326C241.509 345.701 240.625 345.349 239.704 345.348H203.332Z" fill="#E6E6E6"/>
<path d="M169.655 313.244H173.356L165.656 320.55C164.311 321.822 162.498 322.534 160.61 322.534C158.721 322.534 156.908 321.822 155.563 320.55L147.864 313.244H151.565L157.414 318.794C158.266 319.6 159.414 320.051 160.61 320.051C161.806 320.051 162.955 319.6 163.806 318.794L169.655 313.244ZM151.518 333.561H147.817L155.564 326.21C156.909 324.938 158.722 324.226 160.611 324.226C162.499 324.226 164.312 324.938 165.657 326.21L173.404 333.561H169.704L163.806 327.965C162.955 327.16 161.806 326.709 160.61 326.709C159.414 326.709 158.266 327.16 157.414 327.965L151.518 333.561Z" fill="white"/>
<g filter="url(#filter2_d_105_11)">
<path d="M157.774 23.7964C157.124 23.7971 156.5 24.0453 156.04 24.4865C155.579 24.9278 155.321 25.526 155.32 26.1499V106.421C155.321 107.045 155.579 107.643 156.04 108.085C156.5 108.526 157.124 108.774 157.774 108.775H443.238C443.889 108.774 444.513 108.526 444.973 108.085C445.433 107.643 445.692 107.045 445.693 106.421V26.1499C445.692 25.5259 445.433 24.9278 444.973 24.4865C444.513 24.0453 443.889 23.7971 443.238 23.7964L157.774 23.7964Z" fill="#E6E6E6"/>
</g>
<path d="M161.471 102.877H439.542V29.6943H161.471V102.877Z" fill="white"/>
<path d="M404.442 87.6948C403.364 87.6948 402.33 88.1056 401.567 88.8367C400.805 89.5678 400.376 90.5594 400.376 91.5934C400.376 92.6273 400.805 93.6189 401.567 94.35C402.33 95.0812 403.364 95.4919 404.442 95.4919H420.706C421.784 95.4919 422.818 95.0812 423.581 94.35C424.343 93.6189 424.772 92.6273 424.772 91.5934C424.772 90.5594 424.343 89.5678 423.581 88.8367C422.818 88.1056 421.784 87.6948 420.706 87.6948H404.442Z" fill="#457B9D"/>
<path d="M424.772 80.1328H237.027V81.1585H424.772V80.1328Z" fill="#E6E6E6"/>
<path d="M197.783 88.9924C210.862 88.9924 221.465 78.8262 221.465 66.2855C221.465 53.7448 210.862 43.5786 197.783 43.5786C184.704 43.5786 174.101 53.7448 174.101 66.2855C174.101 78.8262 184.704 88.9924 197.783 88.9924Z" fill="#457B9D"/>
<path d="M237.324 74.4049L236.731 73.5513L256.24 61.0807L269.618 67.2381L288.861 55.4502L289.121 55.5562L327.14 71.1066L357.623 56.7489L387.223 68.2552L424.417 36.668L425.126 37.4359L387.436 69.4446L357.665 57.8719L327.171 72.2346L288.961 56.6062L269.693 68.4099L256.327 62.258L237.324 74.4049Z" fill="#3F3D56"/>
<path d="M240.504 88.2314C239.583 88.2326 238.7 88.5843 238.049 89.2094C237.398 89.8344 237.032 90.6817 237.032 91.5651C237.032 92.4485 237.398 93.2957 238.049 93.9208C238.7 94.5458 239.583 94.8975 240.504 94.8987H276.876C277.798 94.8987 278.683 94.5475 279.335 93.9223C279.987 93.2971 280.353 92.4492 280.353 91.5651C280.353 90.6809 279.987 89.833 279.335 89.2078C278.683 88.5827 277.798 88.2314 276.876 88.2314H240.504Z" fill="#E6E6E6"/>
<path d="M207.312 63.6352C207.754 60.7937 205.498 59.2662 202.413 58.2472L203.413 54.398L200.969 53.8141L199.995 57.5618C199.353 57.4083 198.693 57.2635 198.038 57.12L199.019 53.3476L196.577 52.7637L195.575 56.6115C195.043 56.4954 194.521 56.3806 194.015 56.2598L194.018 56.2478L190.648 55.441L189.997 57.9435C189.997 57.9435 191.811 58.3419 191.772 58.3666C192.11 58.4054 192.419 58.57 192.632 58.8248C192.845 59.0796 192.945 59.4044 192.911 59.7293L191.771 64.1144C191.857 64.135 191.942 64.1611 192.025 64.1924L191.767 64.1311L190.169 70.2739C190.134 70.3811 190.077 70.4806 190.001 70.5667C189.926 70.6527 189.834 70.7237 189.729 70.7754C189.625 70.8271 189.512 70.8586 189.395 70.8681C189.278 70.8775 189.16 70.8647 189.049 70.8304C189.073 70.8645 187.273 70.4053 187.273 70.4053L186.06 73.088L189.24 73.8481C189.832 73.9903 190.412 74.1391 190.982 74.2792L189.97 78.1731L192.411 78.757L193.413 74.9052C194.079 75.0787 194.727 75.2389 195.36 75.3897L194.362 79.2235L196.806 79.8074L197.817 75.9215C201.984 76.6776 205.118 76.3727 206.435 72.7597C207.498 69.8501 206.383 68.1718 204.191 67.0767C205.787 66.7223 206.99 65.7153 207.311 63.6352L207.312 63.6352ZM201.728 71.1421C200.972 74.0517 195.863 72.4794 194.206 72.0844L195.548 66.9265C197.204 67.3229 202.516 68.1077 201.728 71.1421H201.728ZM202.483 63.5932C201.794 66.2398 197.541 64.8952 196.161 64.5655L197.378 59.8875C198.758 60.2171 203.201 60.8324 202.483 63.5932V63.5932Z" fill="white"/>
<g filter="url(#filter3_d_105_11)">
<path d="M270.082 152.355C269.431 152.356 268.807 152.604 268.347 153.045C267.887 153.486 267.628 154.085 267.627 154.709V234.98C267.628 235.604 267.887 236.202 268.347 236.643C268.807 237.084 269.431 237.333 270.082 237.333H555.545C556.196 237.333 556.82 237.084 557.28 236.643C557.74 236.202 557.999 235.604 558 234.98V154.708C557.999 154.085 557.74 153.486 557.28 153.045C556.82 152.604 556.196 152.356 555.545 152.355L270.082 152.355Z" fill="#E6E6E6"/>
</g>
<path d="M273.778 231.436H551.849V158.253H273.778V231.436Z" fill="white"/>
<path d="M516.75 216.253C515.671 216.253 514.637 216.664 513.874 217.395C513.112 218.126 512.684 219.118 512.684 220.152C512.684 221.186 513.112 222.178 513.874 222.909C514.637 223.64 515.671 224.05 516.75 224.05H533.013C534.091 224.05 535.126 223.64 535.888 222.909C536.651 222.178 537.079 221.186 537.079 220.152C537.079 219.118 536.651 218.126 535.888 217.395C535.126 216.664 534.091 216.253 533.013 216.253H516.75V216.253Z" fill="#457B9D"/>
<path d="M537.079 208.691H349.335V209.717H537.079V208.691Z" fill="#E6E6E6"/>
<path d="M310.09 217.551C323.169 217.551 333.772 207.385 333.772 194.844C333.772 182.303 323.169 172.137 310.09 172.137C297.011 172.137 286.408 182.303 286.408 194.844C286.408 207.385 297.011 217.551 310.09 217.551Z" fill="#457B9D"/>
<path d="M349.632 202.963L349.038 202.11L368.547 189.639L381.926 195.797L401.168 184.009L401.429 184.115L439.447 199.665L469.93 185.308L499.531 196.813L536.725 165.227L537.434 165.995L499.744 198.003L469.972 186.431L439.478 200.793L401.269 185.165L382 196.969L368.634 190.817L349.632 202.963Z" fill="#3F3D56"/>
<path d="M352.812 216.79C351.89 216.79 351.005 217.141 350.353 217.766C349.701 218.391 349.335 219.239 349.335 220.123C349.335 221.007 349.701 221.855 350.353 222.48C351.005 223.106 351.89 223.457 352.812 223.457H389.184C390.106 223.457 390.99 223.106 391.642 222.48C392.294 221.855 392.661 221.007 392.661 220.123C392.661 219.239 392.294 218.391 391.642 217.766C390.99 217.141 390.106 216.79 389.184 216.79H352.812Z" fill="#E6E6E6"/>
<path d="M310.088 209.809L319.675 196.864L310.088 202.291L300.507 196.864L310.087 209.809H310.088Z" fill="white"/>
<path d="M310.087 200.552H310.088L319.669 195.122L310.088 179.879H310.087L300.507 195.122L310.087 200.552Z" fill="white"/>
<defs>
<filter id="filter0_d_105_11" x="0" y="0" width="201.488" height="380" filterUnits="userSpaceOnUse" color-interpolation-filters="sRGB">
<feFlood flood-opacity="0" result="BackgroundImageFix"/>
<feColorMatrix in="SourceAlpha" type="matrix" values="0 0 0 0 0 0 0 0 0 0 0 0 0 0 0 0 0 0 127 0" result="hardAlpha"/>
<feOffset dx="6" dy="6"/>
<feGaussianBlur stdDeviation="2"/>
<feComposite in2="hardAlpha" operator="out"/>
<feColorMatrix type="matrix" values="0 0 0 0 0 0 0 0 0 0 0 0 0 0 0 0 0 0 0.25 0"/>
<feBlend mode="normal" in2="BackgroundImageFix" result="effect1_dropShadow_105_11"/>
<feBlend mode="normal" in="SourceGraphic" in2="effect1_dropShadow_105_11" result="shape"/>
</filter>
<filter id="filter1_d_105_11" x="118.148" y="280.913" width="301.373" height="95.9785" filterUnits="userSpaceOnUse" color-interpolation-filters="sRGB">
<feFlood flood-opacity="0" result="BackgroundImageFix"/>
<feColorMatrix in="SourceAlpha" type="matrix" values="0 0 0 0 0 0 0 0 0 0 0 0 0 0 0 0 0 0 127 0" result="hardAlpha"/>
<feOffset dx="7" dy="7"/>
<feGaussianBlur stdDeviation="2"/>
<feComposite in2="hardAlpha" operator="out"/>
<feColorMatrix type="matrix" values="0 0 0 0 0 0 0 0 0 0 0 0 0 0 0 0 0 0 0.25 0"/>
<feBlend mode="normal" in2="BackgroundImageFix" result="effect1_dropShadow_105_11"/>
<feBlend mode="normal" in="SourceGraphic" in2="effect1_dropShadow_105_11" result="shape"/>
</filter>
<filter id="filter2_d_105_11" x="155.32" y="23.7964" width="300.373" height="95.9785" filterUnits="userSpaceOnUse" color-interpolation-filters="sRGB">
<feFlood flood-opacity="0" result="BackgroundImageFix"/>
<feColorMatrix in="SourceAlpha" type="matrix" values="0 0 0 0 0 0 0 0 0 0 0 0 0 0 0 0 0 0 127 0" result="hardAlpha"/>
<feOffset dx="6" dy="7"/>
<feGaussianBlur stdDeviation="2"/>
<feComposite in2="hardAlpha" operator="out"/>
<feColorMatrix type="matrix" values="0 0 0 0 0 0 0 0 0 0 0 0 0 0 0 0 0 0 0.25 0"/>
<feBlend mode="normal" in2="BackgroundImageFix" result="effect1_dropShadow_105_11"/>
<feBlend mode="normal" in="SourceGraphic" in2="effect1_dropShadow_105_11" result="shape"/>
</filter>
<filter id="filter3_d_105_11" x="266.627" y="151.355" width="306.373" height="100.979" filterUnits="userSpaceOnUse" color-interpolation-filters="sRGB">
<feFlood flood-opacity="0" result="BackgroundImageFix"/>
<feColorMatrix in="SourceAlpha" type="matrix" values="0 0 0 0 0 0 0 0 0 0 0 0 0 0 0 0 0 0 127 0" result="hardAlpha"/>
<feOffset dx="7" dy="7"/>
<feGaussianBlur stdDeviation="4"/>
<feComposite in2="hardAlpha" operator="out"/>
<feColorMatrix type="matrix" values="0 0 0 0 0 0 0 0 0 0 0 0 0 0 0 0 0 0 0.25 0"/>
<feBlend mode="normal" in2="BackgroundImageFix" result="effect1_dropShadow_105_11"/>
<feBlend mode="normal" in="SourceGraphic" in2="effect1_dropShadow_105_11" result="shape"/>
</filter>
</defs>
</svg>
