<svg width="619" height="457" viewBox="0 0 619 457" fill="none" xmlns="http://www.w3.org/2000/svg">
<g clip-path="url(#clip0_73_107)">
<path d="M199.176 71.1123H197.913V136.147H199.176V71.1123Z" fill="#3F3D56"/>
<path d="M199.176 155.505H197.913V212.729H199.176V155.505Z" fill="#3F3D56"/>
<path d="M293.873 221.846H196.019V223.061H293.873V221.846Z" fill="#3F3D56"/>
<path d="M155.615 238.256H154.353V289.919H155.615V238.256Z" fill="#3F3D56"/>
<path d="M314.075 299.036H165.716V300.252H314.075V299.036Z" fill="#3F3D56"/>
<path d="M437.813 29.7822H436.55V91.1698H437.813V29.7822Z" fill="#3F3D56"/>
<path d="M427.081 100.894H334.256V102.11H427.081V100.894Z" fill="#3F3D56"/>
<path d="M324.808 110.619H323.545V192.672H324.808V110.619Z" fill="#3F3D56"/>
<path d="M198.545 156.204C196.422 156.204 194.347 155.598 192.582 154.462C190.817 153.327 189.442 151.713 188.629 149.825C187.817 147.937 187.604 145.86 188.019 143.855C188.433 141.851 189.455 140.01 190.956 138.565C192.457 137.12 194.369 136.136 196.451 135.737C198.533 135.338 200.691 135.543 202.652 136.325C204.613 137.107 206.289 138.431 207.468 140.131C208.648 141.83 209.277 143.828 209.277 145.871C209.274 148.611 208.142 151.237 206.13 153.174C204.118 155.111 201.39 156.201 198.545 156.204ZM198.545 136.754C196.672 136.754 194.841 137.289 193.284 138.291C191.726 139.292 190.513 140.716 189.796 142.382C189.079 144.048 188.892 145.881 189.257 147.65C189.622 149.418 190.524 151.043 191.849 152.318C193.173 153.593 194.86 154.461 196.697 154.813C198.534 155.165 200.438 154.984 202.169 154.294C203.899 153.604 205.378 152.436 206.419 150.936C207.459 149.437 208.014 147.674 208.014 145.871C208.012 143.454 207.013 141.137 205.238 139.427C203.462 137.718 201.055 136.757 198.545 136.754Z" fill="#3F3D56"/>
<path d="M155.615 309.977C153.493 309.977 151.418 309.371 149.653 308.235C147.888 307.1 146.512 305.486 145.7 303.598C144.888 301.71 144.675 299.633 145.089 297.628C145.503 295.624 146.525 293.783 148.026 292.338C149.527 290.893 151.44 289.909 153.522 289.51C155.603 289.111 157.761 289.316 159.722 290.098C161.683 290.88 163.36 292.204 164.539 293.904C165.718 295.603 166.348 297.6 166.348 299.644C166.344 302.383 165.213 305.01 163.201 306.947C161.189 308.884 158.461 309.974 155.615 309.977ZM155.615 290.527C153.742 290.527 151.911 291.062 150.354 292.064C148.797 293.065 147.583 294.489 146.866 296.155C146.15 297.821 145.962 299.654 146.328 301.423C146.693 303.191 147.595 304.816 148.919 306.091C150.244 307.366 151.931 308.234 153.768 308.586C155.605 308.938 157.509 308.757 159.239 308.067C160.97 307.377 162.449 306.208 163.489 304.709C164.53 303.21 165.085 301.447 165.085 299.644C165.082 297.227 164.084 294.91 162.308 293.2C160.533 291.491 158.126 290.53 155.615 290.527Z" fill="#3F3D56"/>
<path d="M199.176 232.179C204.755 232.179 209.277 227.825 209.277 222.454C209.277 217.083 204.755 212.729 199.176 212.729C193.597 212.729 189.075 217.083 189.075 222.454C189.075 227.825 193.597 232.179 199.176 232.179Z" fill="#457B9D"/>
<path d="M564.707 145.264H459.909V146.479H564.707V145.264Z" fill="#3F3D56"/>
<path d="M450.439 155.505H449.177V212.729H450.439V155.505Z" fill="#3F3D56"/>
<path d="M439.076 221.846H355.111V223.061H439.076V221.846Z" fill="#3F3D56"/>
<path d="M589.96 227.316H502.838V228.532H589.96V227.316Z" fill="#3F3D56"/>
<path d="M494 238.256H492.737V289.919H494V238.256Z" fill="#3F3D56"/>
<path d="M482.636 299.036H334.277V300.252H482.636V299.036Z" fill="#3F3D56"/>
<path d="M324.808 252.236H323.545V289.919H324.808V252.236Z" fill="#3F3D56"/>
<path d="M449.808 155.596C455.386 155.596 459.909 151.242 459.909 145.871C459.909 140.5 455.386 136.146 449.808 136.146C444.229 136.146 439.707 140.5 439.707 145.871C439.707 151.242 444.229 155.596 449.808 155.596Z" fill="#457B9D"/>
<path d="M437.182 111.227C435.059 111.227 432.984 110.621 431.219 109.485C429.454 108.35 428.079 106.736 427.266 104.848C426.454 102.96 426.241 100.883 426.656 98.8783C427.07 96.874 428.092 95.0329 429.593 93.5879C431.094 92.1428 433.006 91.1587 435.088 90.7601C437.17 90.3614 439.328 90.566 441.289 91.3481C443.25 92.1301 444.926 93.4544 446.105 95.1536C447.285 96.8528 447.914 98.8505 447.914 100.894C447.911 103.634 446.779 106.26 444.767 108.197C442.755 110.134 440.027 111.224 437.182 111.227ZM437.182 91.7771C435.309 91.7771 433.478 92.3118 431.921 93.3136C430.363 94.3154 429.15 95.7393 428.433 97.4052C427.716 99.0711 427.528 100.904 427.894 102.673C428.259 104.441 429.161 106.066 430.486 107.341C431.81 108.616 433.497 109.484 435.334 109.836C437.171 110.188 439.075 110.007 440.806 109.317C442.536 108.627 444.015 107.458 445.055 105.959C446.096 104.46 446.651 102.697 446.651 100.894C446.649 98.4769 445.65 96.1596 443.875 94.4504C442.099 92.7412 439.692 91.7798 437.182 91.7771Z" fill="#3F3D56"/>
<path d="M324.176 111.227C322.054 111.227 319.979 110.621 318.214 109.485C316.449 108.35 315.073 106.736 314.261 104.848C313.449 102.96 313.236 100.883 313.65 98.8783C314.064 96.874 315.086 95.0329 316.587 93.5879C318.088 92.1428 320.001 91.1587 322.082 90.7601C324.164 90.3614 326.322 90.566 328.283 91.3481C330.244 92.1301 331.921 93.4544 333.1 95.1536C334.279 96.8528 334.909 98.8505 334.909 100.894C334.905 103.634 333.774 106.26 331.762 108.197C329.75 110.134 327.022 111.224 324.176 111.227ZM324.176 91.7771C322.303 91.7771 320.472 92.3118 318.915 93.3136C317.358 94.3154 316.144 95.7393 315.427 97.4052C314.711 99.0711 314.523 100.904 314.888 102.673C315.254 104.441 316.156 106.066 317.48 107.341C318.805 108.616 320.492 109.484 322.329 109.836C324.166 110.188 326.07 110.007 327.8 109.317C329.531 108.627 331.01 107.458 332.05 105.959C333.091 104.46 333.646 102.697 333.646 100.894C333.643 98.4769 332.645 96.1596 330.869 94.4504C329.094 92.7412 326.687 91.7798 324.176 91.7771Z" fill="#3F3D56"/>
<path d="M492.737 238.864C490.615 238.864 488.54 238.258 486.775 237.123C485.01 235.988 483.634 234.374 482.822 232.486C482.01 230.598 481.797 228.52 482.211 226.516C482.625 224.512 483.647 222.671 485.148 221.226C486.649 219.781 488.562 218.796 490.644 218.398C492.725 217.999 494.883 218.204 496.844 218.986C498.805 219.768 500.482 221.092 501.661 222.791C502.84 224.491 503.47 226.488 503.47 228.532C503.466 231.271 502.335 233.898 500.323 235.835C498.311 237.772 495.583 238.861 492.737 238.864ZM492.737 219.415C490.864 219.415 489.033 219.95 487.476 220.951C485.919 221.953 484.705 223.377 483.988 225.043C483.272 226.709 483.084 228.542 483.45 230.31C483.815 232.079 484.717 233.703 486.041 234.978C487.366 236.254 489.053 237.122 490.89 237.474C492.727 237.825 494.631 237.645 496.361 236.955C498.092 236.265 499.571 235.096 500.611 233.597C501.652 232.098 502.207 230.335 502.207 228.532C502.204 226.115 501.206 223.797 499.43 222.088C497.655 220.379 495.248 219.418 492.737 219.415Z" fill="#3F3D56"/>
<path d="M492.737 309.369C498.316 309.369 502.838 305.015 502.838 299.644C502.838 294.273 498.316 289.919 492.737 289.919C487.158 289.919 482.636 294.273 482.636 299.644C482.636 305.015 487.158 309.369 492.737 309.369Z" fill="#457B9D"/>
<path d="M324.176 309.977C322.054 309.977 319.979 309.371 318.214 308.235C316.449 307.1 315.073 305.486 314.261 303.598C313.449 301.71 313.236 299.633 313.65 297.628C314.064 295.624 315.086 293.783 316.587 292.338C318.088 290.893 320.001 289.909 322.082 289.51C324.164 289.111 326.322 289.316 328.283 290.098C330.244 290.88 331.921 292.204 333.1 293.904C334.279 295.603 334.909 297.6 334.909 299.644C334.905 302.383 333.774 305.01 331.762 306.947C329.75 308.884 327.022 309.974 324.176 309.977ZM324.176 290.527C322.303 290.527 320.472 291.062 318.915 292.064C317.358 293.065 316.144 294.489 315.427 296.155C314.711 297.821 314.523 299.654 314.888 301.423C315.254 303.191 316.156 304.816 317.48 306.091C318.805 307.366 320.492 308.234 322.329 308.586C324.166 308.938 326.07 308.757 327.8 308.067C329.531 307.377 331.01 306.208 332.05 304.709C333.091 303.21 333.646 301.447 333.646 299.644C333.643 297.227 332.645 294.91 330.869 293.2C329.094 291.491 326.687 290.53 324.176 290.527Z" fill="#3F3D56"/>
<path d="M449.177 232.786C447.054 232.786 444.979 232.18 443.214 231.045C441.449 229.91 440.073 228.296 439.261 226.408C438.449 224.52 438.236 222.442 438.65 220.438C439.065 218.434 440.087 216.592 441.588 215.147C443.089 213.702 445.001 212.718 447.083 212.32C449.165 211.921 451.323 212.126 453.284 212.908C455.245 213.69 456.921 215.014 458.1 216.713C459.28 218.412 459.909 220.41 459.909 222.454C459.906 225.193 458.774 227.819 456.762 229.757C454.75 231.694 452.022 232.783 449.177 232.786ZM449.177 213.337C447.304 213.337 445.473 213.871 443.915 214.873C442.358 215.875 441.144 217.299 440.428 218.965C439.711 220.631 439.523 222.464 439.889 224.232C440.254 226.001 441.156 227.625 442.48 228.9C443.805 230.175 445.492 231.044 447.329 231.395C449.166 231.747 451.07 231.567 452.801 230.877C454.531 230.187 456.01 229.018 457.05 227.519C458.091 226.019 458.646 224.257 458.646 222.454C458.644 220.037 457.645 217.719 455.87 216.01C454.094 214.301 451.687 213.339 449.177 213.337Z" fill="#3F3D56"/>
<path d="M155.615 207.867C153.118 207.867 150.677 208.58 148.6 209.915C146.524 211.251 144.906 213.15 143.95 215.371C142.994 217.592 142.744 220.036 143.232 222.394C143.719 224.752 144.921 226.918 146.687 228.618C148.453 230.318 150.703 231.476 153.152 231.945C155.601 232.414 158.14 232.173 160.447 231.253C162.754 230.333 164.726 228.775 166.114 226.776C167.501 224.777 168.241 222.427 168.241 220.023C168.232 216.802 166.898 213.715 164.532 211.438C162.167 209.16 158.961 207.876 155.615 207.867ZM155.615 211.513C156.364 211.513 157.097 211.727 157.72 212.128C158.343 212.529 158.828 213.098 159.115 213.765C159.401 214.431 159.476 215.164 159.33 215.872C159.184 216.579 158.823 217.229 158.294 217.739C157.764 218.249 157.089 218.596 156.354 218.737C155.619 218.878 154.858 218.805 154.166 218.529C153.473 218.253 152.882 217.786 152.466 217.186C152.049 216.587 151.827 215.882 151.827 215.16C151.831 214.194 152.231 213.268 152.94 212.585C153.65 211.902 154.612 211.517 155.615 211.513ZM155.615 229.069C154.119 229.063 152.647 228.705 151.327 228.027C150.006 227.348 148.878 226.37 148.039 225.177C148.1 222.746 153.09 221.408 155.615 221.408C158.14 221.408 163.13 222.746 163.191 225.177C162.351 226.369 161.223 227.347 159.903 228.025C158.583 228.703 157.111 229.062 155.615 229.069Z" fill="#3F3D56"/>
<path d="M199.176 41.938C196.679 41.938 194.237 42.6509 192.161 43.9866C190.085 45.3223 188.466 47.2208 187.511 49.4421C186.555 51.6633 186.305 54.1074 186.792 56.4654C187.279 58.8235 188.482 60.9895 190.248 62.6895C192.014 64.3895 194.263 65.5473 196.713 66.0163C199.162 66.4854 201.701 66.2446 204.008 65.3246C206.315 64.4045 208.287 62.8465 209.674 60.8474C211.062 58.8484 211.802 56.4982 211.802 54.0939C211.792 50.8729 210.459 47.7864 208.093 45.5088C205.727 43.2312 202.522 41.9474 199.176 41.938ZM199.176 45.5848C199.925 45.5848 200.657 45.7987 201.28 46.1994C201.903 46.6001 202.389 47.1696 202.675 47.836C202.962 48.5024 203.037 49.2356 202.891 49.943C202.745 50.6504 202.384 51.3002 201.854 51.8102C201.325 52.3202 200.65 52.6676 199.915 52.8083C199.18 52.949 198.418 52.8768 197.726 52.6007C197.034 52.3247 196.443 51.8573 196.026 51.2576C195.61 50.6579 195.388 49.9528 195.388 49.2316C195.391 48.2654 195.791 47.3397 196.501 46.6565C197.211 45.9733 198.172 45.588 199.176 45.5848ZM199.176 63.1408C197.679 63.1342 196.207 62.7763 194.887 62.098C193.567 61.4197 192.439 60.4416 191.6 59.2485C191.661 56.8173 196.651 55.479 199.176 55.479C201.701 55.479 206.691 56.8173 206.752 59.2485C205.912 60.4407 204.783 61.4181 203.464 62.0963C202.144 62.7745 200.672 63.1329 199.176 63.1408Z" fill="#3F3D56"/>
<path d="M437.181 0C434.684 0 432.243 0.712937 430.167 2.04865C428.09 3.38436 426.472 5.28286 425.516 7.50407C424.561 9.72528 424.311 12.1694 424.798 14.5275C425.285 16.8855 426.488 19.0515 428.253 20.7515C430.019 22.4515 432.269 23.6093 434.718 24.0783C437.167 24.5474 439.706 24.3066 442.013 23.3866C444.321 22.4665 446.292 20.9085 447.68 18.9094C449.067 16.9104 449.808 14.5602 449.808 12.1559C449.798 8.93489 448.465 5.84845 446.099 3.57081C443.733 1.29317 440.527 0.00942839 437.181 0ZM437.181 3.64678C437.931 3.64678 438.663 3.86067 439.286 4.26138C439.909 4.66209 440.394 5.23164 440.681 5.89801C440.968 6.56437 441.043 7.29762 440.897 8.00502C440.75 8.71243 440.39 9.36222 439.86 9.87224C439.33 10.3822 438.655 10.7296 437.92 10.8703C437.186 11.011 436.424 10.9388 435.732 10.6628C435.04 10.3867 434.448 9.91933 434.032 9.31962C433.616 8.71991 433.394 8.01483 433.394 7.29357C433.397 6.32737 433.797 5.40167 434.507 4.71847C435.216 4.03526 436.178 3.65001 437.181 3.64678ZM437.181 21.2028C435.685 21.1962 434.213 20.8383 432.893 20.16C431.573 19.4817 430.444 18.5036 429.606 17.3105C429.666 14.8793 434.656 13.541 437.181 13.541C439.707 13.541 444.697 14.8793 444.757 17.3105C443.918 18.5027 442.789 19.4802 441.469 20.1583C440.149 20.8365 438.678 21.1949 437.181 21.2028Z" fill="#3F3D56"/>
<path d="M582.384 133.107C579.887 133.107 577.445 133.82 575.369 135.156C573.293 136.492 571.674 138.39 570.719 140.611C569.763 142.833 569.513 145.277 570 147.635C570.487 149.993 571.69 152.159 573.456 153.859C575.221 155.559 577.471 156.717 579.92 157.186C582.37 157.655 584.909 157.414 587.216 156.494C589.523 155.574 591.495 154.016 592.882 152.017C594.27 150.018 595.01 147.668 595.01 145.263C595 142.042 593.667 138.956 591.301 136.678C588.935 134.401 585.729 133.117 582.384 133.107ZM582.384 136.754C583.133 136.754 583.865 136.968 584.488 137.369C585.111 137.77 585.597 138.339 585.883 139.005C586.17 139.672 586.245 140.405 586.099 141.112C585.953 141.82 585.592 142.47 585.062 142.98C584.532 143.49 583.858 143.837 583.123 143.978C582.388 144.118 581.626 144.046 580.934 143.77C580.242 143.494 579.65 143.027 579.234 142.427C578.818 141.827 578.596 141.122 578.596 140.401C578.599 139.435 578.999 138.509 579.709 137.826C580.419 137.143 581.38 136.757 582.384 136.754ZM582.384 154.31C580.887 154.304 579.415 153.946 578.095 153.267C576.775 152.589 575.647 151.611 574.808 150.418C574.869 147.987 579.859 146.648 582.384 146.648C584.909 146.648 589.899 147.987 589.96 150.418C589.12 151.61 587.991 152.588 586.671 153.266C585.352 153.944 583.88 154.302 582.384 154.31Z" fill="#3F3D56"/>
<path d="M606.374 215.16C603.877 215.16 601.435 215.873 599.359 217.209C597.283 218.545 595.664 220.443 594.709 222.664C593.753 224.885 593.503 227.33 593.99 229.688C594.477 232.046 595.68 234.212 597.446 235.912C599.211 237.612 601.461 238.769 603.91 239.239C606.36 239.708 608.899 239.467 611.206 238.547C613.513 237.627 615.485 236.069 616.872 234.07C618.26 232.071 619 229.72 619 227.316C618.99 224.095 617.657 221.009 615.291 218.731C612.925 216.453 609.719 215.17 606.374 215.16ZM606.374 218.807C607.123 218.807 607.855 219.021 608.478 219.422C609.101 219.822 609.587 220.392 609.873 221.058C610.16 221.725 610.235 222.458 610.089 223.165C609.943 223.873 609.582 224.522 609.052 225.032C608.522 225.542 607.848 225.89 607.113 226.03C606.378 226.171 605.616 226.099 604.924 225.823C604.232 225.547 603.64 225.079 603.224 224.48C602.808 223.88 602.586 223.175 602.586 222.454C602.589 221.488 602.989 220.562 603.699 219.879C604.409 219.195 605.37 218.81 606.374 218.807ZM606.374 236.363C604.877 236.356 603.405 235.998 602.085 235.32C600.765 234.642 599.637 233.664 598.798 232.471C598.859 230.04 603.849 228.701 606.374 228.701C608.899 228.701 613.889 230.04 613.95 232.471C613.11 233.663 611.981 234.64 610.661 235.318C609.341 235.997 607.87 236.355 606.374 236.363Z" fill="#3F3D56"/>
<path d="M324.983 214.958L323.689 219.951C325.156 220.303 329.676 221.738 330.408 218.912C331.172 215.966 326.449 215.309 324.983 214.958Z" fill="#FBEB5B"/>
<path d="M323.037 222.471L321.61 227.976C323.371 228.397 328.802 230.076 329.605 226.97C330.444 223.732 324.798 222.894 323.037 222.471Z" fill="#FBEB5B"/>
<path d="M330.83 200.094C326.288 199.004 321.512 199.234 317.106 200.757C312.7 202.28 308.862 205.027 306.077 208.65C303.292 212.273 301.686 216.609 301.461 221.111C301.237 225.613 302.404 230.078 304.815 233.941C307.225 237.804 310.772 240.893 315.006 242.815C319.24 244.738 323.971 245.409 328.601 244.743C333.231 244.077 337.552 242.104 341.018 239.074C344.483 236.044 346.937 232.092 348.07 227.719C348.823 224.815 348.974 221.797 348.515 218.837C348.056 215.877 346.995 213.033 345.394 210.468C343.793 207.903 341.683 205.666 339.184 203.886C336.685 202.106 333.846 200.818 330.83 200.094ZM335.541 218.958C335.199 221.178 333.922 222.254 332.224 222.63C334.554 223.797 335.74 225.589 334.61 228.695C333.209 232.552 329.877 232.877 325.449 232.07L324.374 236.218L321.776 235.595L322.836 231.502C322.145 231.337 321.455 231.165 320.766 230.986L319.702 235.097L317.107 234.473L318.182 230.318C317.576 230.169 316.96 230.01 316.331 229.858L312.951 229.046L314.24 226.184C314.24 226.184 316.154 226.675 316.128 226.638C316.247 226.675 316.372 226.689 316.496 226.679C316.62 226.668 316.741 226.635 316.852 226.58C316.962 226.524 317.06 226.449 317.14 226.357C317.221 226.265 317.281 226.158 317.318 226.044L319.017 219.488C319.112 219.51 319.205 219.532 319.291 219.553C319.203 219.52 319.113 219.492 319.021 219.47L320.233 214.789C320.269 214.443 320.162 214.096 319.936 213.824C319.71 213.553 319.382 213.377 319.023 213.335C319.064 213.309 317.136 212.884 317.136 212.884L317.828 210.213L321.41 211.074L321.407 211.087C321.946 211.215 322.501 211.338 323.066 211.462L324.131 207.355L326.727 207.978L325.684 212.004C326.381 212.158 327.082 212.312 327.765 212.475L328.801 208.475L331.398 209.098L330.335 213.207C333.614 214.295 336.012 215.925 335.541 218.958Z" fill="#FBEB5B"/>
<g filter="url(#filter0_d_73_107)">
<path d="M95.9596 445.694C94.1633 461.422 -0.142742 460.101 0.000162245 445.693C1.79649 429.967 96.1025 431.287 95.9596 445.694Z" fill="#E6E6E6"/>
<path d="M65.5014 406.103L69.3246 414.078L76.3329 413.464L80.7931 399.356L73.7843 395.675L65.5014 406.103Z" fill="#FFB8B8"/>
<path d="M41.4407 424.469L41.2899 430.026L52.1213 430.64V423.893L41.4407 424.469Z" fill="#FFB8B8"/>
<path d="M45.1125 323.292L47.6611 372.365L41.2899 425.732L60.4042 428.186L72.5103 360.711L76.3329 314.704L45.1125 323.292Z" fill="#2F2E41"/>
<path d="M15.1666 305.503C15.1666 305.503 7.52082 353.963 23.4496 369.912C39.3784 385.861 61.0415 414.078 61.0415 414.078L76.3331 395.675L37.4669 355.803L45.1127 328.813L76.3331 314.704L71.2359 280.966L25.361 280.353L15.1666 305.503Z" fill="#2F2E41"/>
<path d="M52.7585 193.248C60.5001 193.248 66.7758 187.206 66.7758 179.753C66.7758 172.3 60.5001 166.258 52.7585 166.258C45.017 166.258 38.7412 172.3 38.7412 179.753C38.7412 187.206 45.017 193.248 52.7585 193.248Z" fill="#FFB8B8"/>
<path d="M40.6527 182.82C40.6527 182.82 40.0155 201.836 36.8298 204.289C33.644 206.743 48.2985 217.171 48.2985 217.171L57.8558 202.449V188.954L40.6527 182.82Z" fill="#FFB8B8"/>
<path d="M47.0241 208.583L39.2886 197.338L34.918 203.063L28.5468 220.238L33.644 287.1L63.5898 287.714L67.413 211.037L57.8555 199.996L47.0241 208.583Z" fill="#D0CDE1"/>
<path d="M79.5189 212.877L84.6161 212.264C84.6161 212.264 85.8904 212.877 86.5276 217.171C87.1647 221.465 94.8105 259.497 94.8105 259.497L84.6161 306.116L73.1474 291.394L80.1561 265.631L73.1474 239.867L79.5189 212.877Z" fill="#2F2E41"/>
<path d="M14.5297 212.264H10.7064L1.1496 261.95L10.0694 300.596L18.9893 286.487L16.4407 271.152L17.7153 257.657L22.1755 249.682L14.5297 212.264Z" fill="#2F2E41"/>
<path d="M71.2359 411.624C71.2359 411.624 67.413 410.397 67.413 412.851C67.413 415.304 69.9616 422.665 69.9616 422.665C69.9616 422.665 66.1387 445.362 71.8731 444.135C77.6074 442.908 82.0675 432.48 82.7047 429.413C83.3418 426.346 86.5275 410.397 86.5275 410.397C86.5275 410.397 91.6248 398.742 88.439 398.129C85.2532 397.515 76.3331 395.062 76.3331 395.062C76.3331 395.062 81.4303 410.397 71.2359 411.624Z" fill="#2F2E41"/>
<path d="M52.7585 430.64C52.7585 430.64 42.5641 424.506 40.6527 429.413C39.385 432.992 38.5303 436.695 38.104 440.455C38.104 440.455 35.5554 448.429 45.7498 447.202C55.9443 445.975 54.67 445.975 55.3071 442.295C55.9443 438.614 52.7585 430.64 52.7585 430.64Z" fill="#2F2E41"/>
<path d="M44.4756 179.753L47.0242 179.139C47.0242 179.139 48.9356 168.711 53.3957 169.938C57.8557 171.165 69.3245 172.392 69.3245 167.484C69.3245 162.577 58.4929 158.283 52.1214 158.896C45.7499 159.51 34.9183 161.35 35.5555 170.551C36.1926 179.753 40.304 188.703 40.304 188.703L40.6361 183.248L44.4756 179.753Z" fill="#2F2E41"/>
<path d="M57.8556 215.944L47.0241 208.583L57.8556 199.996L61.6163 204.34L57.8556 215.944Z" fill="#D0CDE1"/>
<path d="M37.4666 215.331L47.0241 208.583L39.3783 197.542L34.918 203.063L37.4666 215.331Z" fill="#D0CDE1"/>
<path d="M83.9789 212.264L63.5901 204.289L58.8115 200.915L44.4756 261.95L34.9183 234.347L37.7855 199.075L11.3437 212.264L20.2639 253.976L21.5382 269.925L17.7153 282.807C17.7153 282.807 4.33511 292.008 8.79516 301.822C13.2552 311.637 18.3524 312.251 18.3524 312.251C18.3524 312.251 40.0155 292.621 41.2898 287.714C42.5641 282.806 44.4756 274.219 44.4756 274.219C44.4756 274.219 55.3072 313.477 68.0501 312.864C80.7931 312.25 80.7932 299.369 80.7932 299.369L77.6074 285.874L72.5102 271.765L75.0588 248.455L83.9789 212.264Z" fill="#2F2E41"/>
</g>
</g>
<defs>
<filter id="filter0_d_73_107" x="0" y="158.838" width="104.96" height="307.162" filterUnits="userSpaceOnUse" color-interpolation-filters="sRGB">
<feFlood flood-opacity="0" result="BackgroundImageFix"/>
<feColorMatrix in="SourceAlpha" type="matrix" values="0 0 0 0 0 0 0 0 0 0 0 0 0 0 0 0 0 0 127 0" result="hardAlpha"/>
<feOffset dx="5" dy="5"/>
<feGaussianBlur stdDeviation="2"/>
<feComposite in2="hardAlpha" operator="out"/>
<feColorMatrix type="matrix" values="0 0 0 0 0 0 0 0 0 0 0 0 0 0 0 0 0 0 0.25 0"/>
<feBlend mode="normal" in2="BackgroundImageFix" result="effect1_dropShadow_73_107"/>
<feBlend mode="normal" in="SourceGraphic" in2="effect1_dropShadow_73_107" result="shape"/>
</filter>
<clipPath id="clip0_73_107">
<rect width="619" height="457" fill="white"/>
</clipPath>
</defs>
</svg>
